<svg xmlns="http://www.w3.org/2000/svg" viewBox="0 0 24 24" fill="currentColor" aria-hidden="true">
<path d="m2.1 3.51 1.39-1.39 18 18-1.39 1.39-2.94-2.94A10.94 10.94 0 0 1 12 19.5C7 19.5 2.73 16.39 1 12c.8-2.03 2.18-3.79 3.95-5.09L2.1 3.51Zm7.46 7.46 4.92 4.92A3.47 3.47 0 0 1 12 16.5 4.5 4.5 0 0 1 7.5 12c0-.9.27-1.74.73-2.47l1.33 1.44Zm6.05 6.05-1.67-1.67c-.61.41-1.34.65-2.12.65A4.5 4.5 0 0 1 7.33 11.5c0-.78.24-1.51.65-2.12L5.3 6.7A9.65 9.65 0 0 0 2.96 12c1.51 3.52 5.02 6 9.04 6 1.34 0 2.63-.28 3.61-.98ZM12 7.5c2.49 0 4.5 2.01 4.5 4.5 0 .78-.2 1.5-.56 2.13l2.59 2.59A9.77 9.77 0 0 0 21.04 12c-1.51-3.52-5.02-6-9.04-6-1.39 0-2.7.29-3.88 1.02l1.86 1.86c.62-.24 1.3-.38 2.02-.38Zm-.49 1.55 3.44 3.44c.03-.16.05-.32.05-.49A3 3 0 0 0 12 9c-.17 0-.33.02-.49.05Z"/>
</svg>
